<svg width="338" height="235" viewBox="0 0 338 235" fill="none" xmlns="http://www.w3.org/2000/svg">
<rect width="338" height="235" rx="8" fill="#D9D9D9"/>
<path d="M122.472 123.576C122.472 124.771 122.184 125.891 121.608 126.936C121.053 127.981 120.168 128.824 118.952 129.464C117.757 130.104 116.243 130.424 114.408 130.424H110.664V139H106.184V116.664H114.408C116.136 116.664 117.608 116.963 118.824 117.56C120.04 118.157 120.947 118.979 121.544 120.024C122.163 121.069 122.472 122.253 122.472 123.576ZM114.216 126.808C115.453 126.808 116.371 126.531 116.968 125.976C117.565 125.4 117.864 124.6 117.864 123.576C117.864 121.4 116.648 120.312 114.216 120.312H110.664V126.808H114.216ZM130.133 124.024C130.709 123.085 131.455 122.349 132.373 121.816C133.311 121.283 134.378 121.016 135.573 121.016V125.72H134.389C132.981 125.72 131.914 126.051 131.189 126.712C130.485 127.373 130.133 128.525 130.133 130.168V139H125.653V121.272H130.133V124.024ZM146.462 139.288C144.756 139.288 143.22 138.915 141.854 138.168C140.489 137.4 139.412 136.323 138.622 134.936C137.854 133.549 137.47 131.949 137.47 130.136C137.47 128.323 137.865 126.723 138.654 125.336C139.465 123.949 140.564 122.883 141.95 122.136C143.337 121.368 144.884 120.984 146.59 120.984C148.297 120.984 149.844 121.368 151.23 122.136C152.617 122.883 153.705 123.949 154.494 125.336C155.305 126.723 155.71 128.323 155.71 130.136C155.71 131.949 155.294 133.549 154.462 134.936C153.652 136.323 152.542 137.4 151.134 138.168C149.748 138.915 148.19 139.288 146.462 139.288ZM146.462 135.384C147.273 135.384 148.03 135.192 148.734 134.808C149.46 134.403 150.036 133.805 150.462 133.016C150.889 132.227 151.102 131.267 151.102 130.136C151.102 128.451 150.654 127.16 149.758 126.264C148.884 125.347 147.806 124.888 146.526 124.888C145.246 124.888 144.169 125.347 143.294 126.264C142.441 127.16 142.014 128.451 142.014 130.136C142.014 131.821 142.43 133.123 143.262 134.04C144.116 134.936 145.182 135.384 146.462 135.384ZM161.268 119.16C160.458 119.16 159.786 118.915 159.252 118.424C158.74 117.912 158.484 117.283 158.484 116.536C158.484 115.789 158.74 115.171 159.252 114.68C159.786 114.168 160.458 113.912 161.268 113.912C162.058 113.912 162.708 114.168 163.22 114.68C163.732 115.171 163.988 115.789 163.988 116.536C163.988 117.283 163.732 117.912 163.22 118.424C162.708 118.915 162.058 119.16 161.268 119.16ZM163.476 141.912C163.476 143.875 162.986 145.283 162.004 146.136C161.044 147.011 159.658 147.448 157.844 147.448H155.86V143.64H157.14C157.823 143.64 158.303 143.501 158.58 143.224C158.858 142.968 158.996 142.541 158.996 141.944V121.272H163.476V141.912ZM184.383 129.752C184.383 130.392 184.34 130.968 184.255 131.48H171.295C171.401 132.76 171.849 133.763 172.639 134.488C173.428 135.213 174.399 135.576 175.551 135.576C177.215 135.576 178.399 134.861 179.103 133.432H183.935C183.423 135.139 182.441 136.547 180.991 137.656C179.54 138.744 177.759 139.288 175.647 139.288C173.94 139.288 172.404 138.915 171.039 138.168C169.695 137.4 168.639 136.323 167.871 134.936C167.124 133.549 166.751 131.949 166.751 130.136C166.751 128.301 167.124 126.691 167.871 125.304C168.617 123.917 169.663 122.851 171.007 122.104C172.351 121.357 173.897 120.984 175.647 120.984C177.332 120.984 178.836 121.347 180.159 122.072C181.503 122.797 182.537 123.832 183.263 125.176C184.009 126.499 184.383 128.024 184.383 129.752ZM179.743 128.472C179.721 127.32 179.305 126.403 178.495 125.72C177.684 125.016 176.692 124.664 175.519 124.664C174.409 124.664 173.471 125.005 172.703 125.688C171.956 126.349 171.497 127.277 171.327 128.472H179.743ZM186.501 130.136C186.501 128.301 186.874 126.701 187.621 125.336C188.367 123.949 189.402 122.883 190.725 122.136C192.047 121.368 193.562 120.984 195.269 120.984C197.466 120.984 199.279 121.539 200.709 122.648C202.159 123.736 203.13 125.272 203.621 127.256H198.789C198.533 126.488 198.095 125.891 197.477 125.464C196.879 125.016 196.133 124.792 195.237 124.792C193.957 124.792 192.943 125.261 192.197 126.2C191.45 127.117 191.077 128.429 191.077 130.136C191.077 131.821 191.45 133.133 192.197 134.072C192.943 134.989 193.957 135.448 195.237 135.448C197.05 135.448 198.234 134.637 198.789 133.016H203.621C203.13 134.936 202.159 136.461 200.709 137.592C199.258 138.723 197.445 139.288 195.269 139.288C193.562 139.288 192.047 138.915 190.725 138.168C189.402 137.4 188.367 136.333 187.621 134.968C186.874 133.581 186.501 131.971 186.501 130.136ZM212.119 124.952V133.528C212.119 134.125 212.257 134.563 212.535 134.84C212.833 135.096 213.324 135.224 214.007 135.224H216.087V139H213.271C209.495 139 207.607 137.165 207.607 133.496V124.952H205.495V121.272H207.607V116.888H212.119V121.272H216.087V124.952H212.119ZM226.093 139.288C224.642 139.288 223.341 139.032 222.189 138.52C221.037 137.987 220.12 137.272 219.437 136.376C218.776 135.48 218.413 134.488 218.349 133.4H222.861C222.946 134.083 223.277 134.648 223.853 135.096C224.45 135.544 225.186 135.768 226.061 135.768C226.914 135.768 227.576 135.597 228.045 135.256C228.536 134.915 228.781 134.477 228.781 133.944C228.781 133.368 228.482 132.941 227.885 132.664C227.309 132.365 226.381 132.045 225.101 131.704C223.778 131.384 222.69 131.053 221.837 130.712C221.005 130.371 220.28 129.848 219.661 129.144C219.064 128.44 218.765 127.491 218.765 126.296C218.765 125.315 219.042 124.419 219.597 123.608C220.173 122.797 220.984 122.157 222.029 121.688C223.096 121.219 224.344 120.984 225.773 120.984C227.885 120.984 229.57 121.517 230.829 122.584C232.088 123.629 232.781 125.048 232.909 126.84H228.621C228.557 126.136 228.258 125.581 227.725 125.176C227.213 124.749 226.52 124.536 225.645 124.536C224.834 124.536 224.205 124.685 223.757 124.984C223.33 125.283 223.117 125.699 223.117 126.232C223.117 126.829 223.416 127.288 224.013 127.608C224.61 127.907 225.538 128.216 226.797 128.536C228.077 128.856 229.133 129.187 229.965 129.528C230.797 129.869 231.512 130.403 232.109 131.128C232.728 131.832 233.048 132.771 233.069 133.944C233.069 134.968 232.781 135.885 232.205 136.696C231.65 137.507 230.84 138.147 229.773 138.616C228.728 139.064 227.501 139.288 226.093 139.288Z" fill="black"/>
</svg>
