<svg width="149" height="50" viewBox="0 0 149 50" fill="none" xmlns="http://www.w3.org/2000/svg">
<path d="M0 5.40921L6.84821 12.97V43.8431L0 36.7781V5.40921Z" fill="#855AFF"/>
<path d="M24.9275 0L31.7757 8.72177V49.2523L24.9275 40.1986V0Z" fill="#1850E2"/>
<rect x="12.3268" y="13.3807" width="7.12214" height="7.97148" rx="3.56107" fill="#1F1E71"/>
<rect x="12.3268" y="25.0532" width="6.57428" height="12.2419" fill="#1F1E71"/>
<path d="M45.584 33V16.2H48.752V23.136H54.992V16.2H58.16V33H54.992V26.016H48.752V33H45.584ZM61.43 33V21.096H64.454V33H61.43ZM62.942 19.704C62.398 19.704 61.934 19.528 61.55 19.176C61.182 18.824 60.998 18.36 60.998 17.784C60.998 17.208 61.182 16.744 61.55 16.392C61.934 16.04 62.398 15.864 62.942 15.864C63.502 15.864 63.966 16.04 64.334 16.392C64.702 16.744 64.886 17.208 64.886 17.784C64.886 18.36 64.702 18.824 64.334 19.176C63.966 19.528 63.502 19.704 62.942 19.704ZM79.6348 33.336C78.3388 33.336 77.1948 33.104 76.2028 32.64C75.2108 32.176 74.4348 31.512 73.8748 30.648C73.3148 29.784 73.0348 28.744 73.0348 27.528V26.856H76.1548V27.528C76.1548 28.536 76.4668 29.296 77.0908 29.808C77.7148 30.304 78.5628 30.552 79.6348 30.552C80.7228 30.552 81.5308 30.336 82.0588 29.904C82.6028 29.472 82.8748 28.92 82.8748 28.248C82.8748 27.784 82.7388 27.408 82.4668 27.12C82.2108 26.832 81.8268 26.6 81.3148 26.424C80.8188 26.232 80.2108 26.056 79.4908 25.896L78.9388 25.776C77.7868 25.52 76.7948 25.2 75.9628 24.816C75.1468 24.416 74.5148 23.896 74.0668 23.256C73.6348 22.616 73.4188 21.784 73.4188 20.76C73.4188 19.736 73.6588 18.864 74.1388 18.144C74.6348 17.408 75.3228 16.848 76.2028 16.464C77.0988 16.064 78.1468 15.864 79.3468 15.864C80.5468 15.864 81.6108 16.072 82.5388 16.488C83.4828 16.888 84.2188 17.496 84.7468 18.312C85.2908 19.112 85.5628 20.12 85.5628 21.336V22.056H82.4428V21.336C82.4428 20.696 82.3148 20.184 82.0588 19.8C81.8188 19.4 81.4668 19.112 81.0028 18.936C80.5388 18.744 79.9868 18.648 79.3468 18.648C78.3868 18.648 77.6748 18.832 77.2108 19.2C76.7628 19.552 76.5388 20.04 76.5388 20.664C76.5388 21.08 76.6428 21.432 76.8508 21.72C77.0748 22.008 77.4028 22.248 77.8348 22.44C78.2668 22.632 78.8188 22.8 79.4908 22.944L80.0428 23.064C81.2428 23.32 82.2828 23.648 83.1628 24.048C84.0588 24.448 84.7548 24.976 85.2508 25.632C85.7468 26.288 85.9948 27.128 85.9948 28.152C85.9948 29.176 85.7308 30.08 85.2028 30.864C84.6908 31.632 83.9548 32.24 82.9948 32.688C82.0508 33.12 80.9308 33.336 79.6348 33.336ZM93.0134 33C92.2294 33 91.5894 32.76 91.0934 32.28C90.6134 31.784 90.3734 31.128 90.3734 30.312V23.592H87.3974V21.096H90.3734V17.4H93.3974V21.096H96.6614V23.592H93.3974V29.784C93.3974 30.264 93.6214 30.504 94.0694 30.504H96.3734V33H93.0134ZM103.935 33.192C103.007 33.192 102.191 32.984 101.487 32.568C100.799 32.136 100.263 31.544 99.8788 30.792C99.4948 30.04 99.3027 29.176 99.3027 28.2V21.096H102.327V27.96C102.327 28.856 102.543 29.528 102.975 29.976C103.423 30.424 104.055 30.648 104.871 30.648C105.799 30.648 106.519 30.344 107.031 29.736C107.543 29.112 107.799 28.248 107.799 27.144V21.096H110.823V33H107.847V31.44H107.415C107.223 31.84 106.863 32.232 106.335 32.616C105.807 33 105.007 33.192 103.935 33.192ZM118.988 33.336C118.044 33.336 117.156 33.104 116.324 32.64C115.508 32.16 114.852 31.464 114.356 30.552C113.86 29.64 113.612 28.536 113.612 27.24V26.856C113.612 25.56 113.86 24.456 114.356 23.544C114.852 22.632 115.508 21.944 116.324 21.48C117.14 21 118.028 20.76 118.988 20.76C119.708 20.76 120.308 20.848 120.788 21.024C121.284 21.184 121.684 21.392 121.988 21.648C122.292 21.904 122.524 22.176 122.684 22.464H123.116V16.2H126.14V33H123.164V31.56H122.732C122.46 32.008 122.036 32.416 121.46 32.784C120.9 33.152 120.076 33.336 118.988 33.336ZM119.9 30.696C120.828 30.696 121.604 30.4 122.228 29.808C122.852 29.2 123.164 28.32 123.164 27.168V26.928C123.164 25.776 122.852 24.904 122.228 24.312C121.62 23.704 120.844 23.4 119.9 23.4C118.972 23.4 118.196 23.704 117.572 24.312C116.948 24.904 116.636 25.776 116.636 26.928V27.168C116.636 28.32 116.948 29.2 117.572 29.808C118.196 30.4 118.972 30.696 119.9 30.696ZM129.493 33V21.096H132.517V33H129.493ZM131.005 19.704C130.461 19.704 129.997 19.528 129.613 19.176C129.245 18.824 129.061 18.36 129.061 17.784C129.061 17.208 129.245 16.744 129.613 16.392C129.997 16.04 130.461 15.864 131.005 15.864C131.565 15.864 132.029 16.04 132.397 16.392C132.765 16.744 132.949 17.208 132.949 17.784C132.949 18.36 132.765 18.824 132.397 19.176C132.029 19.528 131.565 19.704 131.005 19.704ZM141.532 33.336C140.348 33.336 139.284 33.096 138.34 32.616C137.396 32.136 136.652 31.44 136.108 30.528C135.564 29.616 135.292 28.52 135.292 27.24V26.856C135.292 25.576 135.564 24.48 136.108 23.568C136.652 22.656 137.396 21.96 138.34 21.48C139.284 21 140.348 20.76 141.532 20.76C142.716 20.76 143.78 21 144.724 21.48C145.668 21.96 146.412 22.656 146.956 23.568C147.5 24.48 147.772 25.576 147.772 26.856V27.24C147.772 28.52 147.5 29.616 146.956 30.528C146.412 31.44 145.668 32.136 144.724 32.616C143.78 33.096 142.716 33.336 141.532 33.336ZM141.532 30.648C142.46 30.648 143.228 30.352 143.836 29.76C144.444 29.152 144.748 28.288 144.748 27.168V26.928C144.748 25.808 144.444 24.952 143.836 24.36C143.244 23.752 142.476 23.448 141.532 23.448C140.604 23.448 139.836 23.752 139.228 24.36C138.62 24.952 138.316 25.808 138.316 26.928V27.168C138.316 28.288 138.62 29.152 139.228 29.76C139.836 30.352 140.604 30.648 141.532 30.648Z" fill="#1F1E71"/>
</svg>
